<svg xmlns="http://www.w3.org/2000/svg" width="18.5" height="15.701" viewBox="0 0 18.5 15.701">
    <g id="prefix__Camada_4" transform="translate(-556.7 -532.1)">
        <path id="prefix__Caminho_2" fill="#00e66e" d="M573.3 536.6v-.5a9.024 9.024 0 0 0 1.9-2 7.945 7.945 0 0 1-2.2.6 4.145 4.145 0 0 0 1.7-2.2 6.3 6.3 0 0 1-2.4.9 3.721 3.721 0 0 0-2.8-1.3 3.821 3.821 0 0 0-3.8 3.9 2.77 2.77 0 0 0 .1.9 10.682 10.682 0 0 1-7.8-4.3 4.552 4.552 0 0 0-.5 2 4.359 4.359 0 0 0 1.7 3.4 3.371 3.371 0 0 1-1.7-.5v.1a4.023 4.023 0 0 0 3 4 3.4 3.4 0 0 1-1 .1 1.7 1.7 0 0 1-.7-.1 3.82 3.82 0 0 0 3.5 2.8 7.138 7.138 0 0 1-4.7 1.7 2.77 2.77 0 0 1-.9-.1 10.734 10.734 0 0 0 5.8 1.8c7 .1 10.8-5.9 10.8-11.2z" data-name="Caminho 2"/>
    </g>
</svg>
