<svg xmlns="http://www.w3.org/2000/svg" width="190.046" height="109.139" viewBox="0 0 190.046 109.139">
    <defs>
        <style>
            .prefix__cls-1{fill:#fff}
        </style>
    </defs>
    <g id="prefix__Camada_2" data-name="Camada 2" transform="translate(.003 .053)">
        <g id="prefix__Camada_1" data-name="Camada 1" transform="translate(-.003 -.053)">
            <path id="prefix__Caminho_4209" d="M232.052 83.214a2.185 2.185 0 0 1-.6-1.626v-26.97a2.2 2.2 0 0 1 .6-1.626 2.262 2.262 0 0 1 1.673-.6h16.4a2.309 2.309 0 0 1 1.589.492 1.74 1.74 0 0 1 .559 1.382 1.673 1.673 0 0 1-.559 1.359 2.392 2.392 0 0 1-1.579.468h-14.181v9.885h13.284a2.316 2.316 0 0 1 1.583.492 1.988 1.988 0 0 1 0 2.764 2.316 2.316 0 0 1-1.583.489h-13.284v10.369h14.178c1.425 0 2.138.612 2.138 1.83a1.743 1.743 0 0 1-.559 1.382 2.305 2.305 0 0 1-1.579.489h-16.4a2.262 2.262 0 0 1-1.683-.579z" class="prefix__cls-1" data-name="Caminho 4209" transform="translate(-154.003 -34.838)"/>
            <path id="prefix__Caminho_4210" d="M335.712 81.9q2.115 2.185 2.115 6.642v11.544a2.081 2.081 0 0 1-.579 1.583 2.215 2.215 0 0 1-1.606.562 2.008 2.008 0 0 1-2.142-2.142v-1.65a6.268 6.268 0 0 1-2.52 2.878 7.422 7.422 0 0 1-3.9 1 8.841 8.841 0 0 1-3.925-.87 6.732 6.732 0 0 1-2.784-2.429 6.3 6.3 0 0 1-1-3.477 5.358 5.358 0 0 1 1.225-3.724 7.309 7.309 0 0 1 4.059-1.937 40.547 40.547 0 0 1 7.776-.582h1.027v-1.293a5.242 5.242 0 0 0-1.027-3.611 4.277 4.277 0 0 0-3.3-1.114 10.508 10.508 0 0 0-2.945.4 22.245 22.245 0 0 0-3.028 1.144 4.326 4.326 0 0 1-1.693.669 1.372 1.372 0 0 1-1.088-.493 1.827 1.827 0 0 1-.425-1.248 1.951 1.951 0 0 1 .378-1.181 3.985 3.985 0 0 1 1.228-1 15.205 15.205 0 0 1 3.654-1.362 17.1 17.1 0 0 1 4.072-.5q4.31.001 6.428 2.191zM331.9 97.287a6.08 6.08 0 0 0 1.559-4.3v-1.134h-.8a34.832 34.832 0 0 0-5.354.311 5.284 5.284 0 0 0-2.677 1.047 2.734 2.734 0 0 0-.8 2.118 3.346 3.346 0 0 0 1.161 2.63 4.209 4.209 0 0 0 2.9 1.024A5.243 5.243 0 0 0 331.9 97.3z" class="prefix__cls-1" data-name="Caminho 4210" transform="translate(-212.502 -53.02)"/>
            <path id="prefix__Caminho_4211" d="M382.895 78.638a1.961 1.961 0 0 1-.646-1.606v-18.1a2.031 2.031 0 0 1 .646-1.63 2.4 2.4 0 0 1 1.626-.549 2.322 2.322 0 0 1 1.606.555 2.071 2.071 0 0 1 .622 1.63v18.1a2.008 2.008 0 0 1-.622 1.606 2.376 2.376 0 0 1-1.606.535 2.459 2.459 0 0 1-1.626-.542zm1.717-24.072a1.222 1.222 0 0 1-.87-.358 1.128 1.128 0 0 1-.378-.847 1.2 1.2 0 0 1 .311-.8l4.815-6.284a2.546 2.546 0 0 1 2.051-1.2 1.944 1.944 0 0 1 1.425.579 1.887 1.887 0 0 1 .569 1.382 2.516 2.516 0 0 1-1.067 1.917l-6.023 5.307a1.241 1.241 0 0 1-.834.304z" class="prefix__cls-1" data-name="Caminho 4211" transform="translate(-254.338 -29.97)"/>
            <path id="prefix__Caminho_4212" d="M406.719 130.789a4.622 4.622 0 0 1 .78 2.9 9.369 9.369 0 0 1-2.54 6.562 1.629 1.629 0 0 1-1.161.535 1.372 1.372 0 0 1-.98-.381 1.2 1.2 0 0 1-.4-.913 1.509 1.509 0 0 1 .4-.937 6.023 6.023 0 0 0 1.606-3.075 2.807 2.807 0 0 1-1.85-.847 2.637 2.637 0 0 1-.736-1.917 2.851 2.851 0 0 1 .8-2.071 2.637 2.637 0 0 1 1.961-.827 2.563 2.563 0 0 1 2.12.971z" class="prefix__cls-1" data-name="Caminho 4212" transform="translate(-267.374 -86.358)"/>
            <path id="prefix__Caminho_4213" d="M69.6 138.017a1.673 1.673 0 0 1 1.231.525.974.974 0 0 1 .248 1.161l-16.666 47.388a1.6 1.6 0 0 1-1.616 1.195 1.492 1.492 0 0 1-.917-.315 1.9 1.9 0 0 1-.632-.88l-15.6-44.072-15.68 44.072a1.6 1.6 0 0 1-1.616 1.195 1.489 1.489 0 0 1-.913-.315 1.9 1.9 0 0 1-.632-.88L.068 139.7a.783.783 0 0 1-.07-.365 1.175 1.175 0 0 1 .492-.95A1.693 1.693 0 0 1 1.544 138a1.148 1.148 0 0 1 1.195.843l15.61 44.869 15.536-44.223a1.837 1.837 0 0 1 .669-.95 1.747 1.747 0 0 1 1-.315 1.719 1.719 0 0 1 1.673 1.338l15.54 44.169 15.61-44.831a1.148 1.148 0 0 1 1.223-.883z" class="prefix__cls-1" data-name="Caminho 4213" transform="translate(.003 -91.805)"/>
            <path id="prefix__Caminho_4214" d="M211.241 215.851a14.445 14.445 0 0 1-5.354-6.187 23.777 23.777 0 0 1 .01-18.638 14.613 14.613 0 0 1 26.578 0 23.819 23.819 0 0 1 0 18.631 14.994 14.994 0 0 1-21.235 6.187zm16.845-4.534q3.129-3.835 3.129-11.005 0-6.957-3.2-10.862a11.929 11.929 0 0 0-17.648 0q-3.2 3.9-3.2 10.862 0 7.174 3.129 11.005a10.749 10.749 0 0 0 8.824 3.831q5.83 0 8.966-3.831z" class="prefix__cls-1" data-name="Caminho 4214" transform="translate(-135.731 -121.408)"/>
            <path id="prefix__Caminho_4215" d="M307.044 216.2a14.415 14.415 0 0 1-5.354-6.187 23.78 23.78 0 0 1 0-18.631 14.389 14.389 0 0 1 5.354-6.187 15.56 15.56 0 0 1 15.891 0 14.388 14.388 0 0 1 5.354 6.187 23.818 23.818 0 0 1 0 18.631 14.994 14.994 0 0 1-21.235 6.187zm16.841-4.534q3.125-3.835 3.129-11.005 0-6.957-3.2-10.862a11.929 11.929 0 0 0-17.648 0q-3.2 3.9-3.2 10.862 0 7.174 3.129 11.005a10.746 10.746 0 0 0 8.82 3.831q5.839-.002 8.971-3.834z" class="prefix__cls-1" data-name="Caminho 4215" transform="translate(-199.475 -121.754)"/>
            <path id="prefix__Caminho_4216" d="M425.434 185.214a14.656 14.656 0 0 1 5.354 6.224 21.568 21.568 0 0 1 1.9 9.349 21.18 21.18 0 0 1-1.9 9.245 14.127 14.127 0 0 1-13.288 8.332 13.659 13.659 0 0 1-7.345-1.9 11.712 11.712 0 0 1-4.608-5.484v18.28a1.72 1.72 0 0 1-.385 1.195 1.405 1.405 0 0 1-1.1.422q-1.476 0-1.476-1.616v-44.573a1.481 1.481 0 0 1 2.566-1.128 1.629 1.629 0 0 1 .385 1.128v5.555a11.548 11.548 0 0 1 4.608-5.381 13.8 13.8 0 0 1 7.342-1.862 14.388 14.388 0 0 1 7.947 2.214zm.843 26.435q3.162-3.835 3.162-10.865t-3.162-10.969a10.66 10.66 0 0 0-8.79-3.935q-5.769 0-8.857 3.831t-3.1 10.932q0 7.1 3.1 10.969t8.787 3.868a10.847 10.847 0 0 0 8.861-3.828z" class="prefix__cls-1" data-name="Caminho 4216" transform="translate(-267.872 -121.743)"/>
            <path id="prefix__Caminho_4217" d="M497.107 176.335a1.174 1.174 0 0 1-.281-.81 18.44 18.44 0 0 1 1.723-8.262 45.785 45.785 0 0 1 4.956-7.629 45.634 45.634 0 0 0 3.972-5.973 11.567 11.567 0 0 0 1.3-5.484 6.889 6.889 0 0 0-2.567-5.662 10.814 10.814 0 0 0-6.993-2.075 15.75 15.75 0 0 0-6.645 1.372 32.713 32.713 0 0 0-6.716 4.393 1.864 1.864 0 0 1-1.195.632.827.827 0 0 1-.7-.422 1.734 1.734 0 0 1-.281-.984 2.222 2.222 0 0 1 .7-1.616 21.549 21.549 0 0 1 14.7-6.187 14.3 14.3 0 0 1 9.279 2.848 9.312 9.312 0 0 1 3.517 7.629 13.385 13.385 0 0 1-1.513 6.5 45.151 45.151 0 0 1-4.6 6.568 48.722 48.722 0 0 0-4.905 7.027 18.255 18.255 0 0 0-2.112 7.452q-.141.984-.914.984a.9.9 0 0 1-.719-.3zm-1.3 10.9a3.092 3.092 0 0 1 0-4.015 2.714 2.714 0 0 1 3.868 0 3.082 3.082 0 0 1 0 4.015 2.714 2.714 0 0 1-3.868 0z" class="prefix__cls-1" data-name="Caminho 4217" transform="translate(-321.832 -91.559)"/>
            <path id="prefix__Caminho_4218" d="M440.58 44.063a1.389 1.389 0 0 1-.863-.294 1.415 1.415 0 0 1-.532-1.4c.335-1.723.76-3.8 1.181-5.889l.736-3.654a19.143 19.143 0 0 1-4.377-7.124 19.408 19.408 0 0 1 12.009-24.667 19.408 19.408 0 1 1 3.3 37.477l-2.971 1.482-7.853 3.918a1.415 1.415 0 0 1-.63.151zm9.081-40.338a16.57 16.57 0 0 0-10.246 21.044 16.4 16.4 0 0 0 4.213 6.555 1.419 1.419 0 0 1 .415 1.305c-.274 1.379-.582 2.894-.89 4.414-.207 1.024-.415 2.048-.612 3.032l5.25-2.633 3.376-1.673a1.426 1.426 0 0 1 .893-.124 16.547 16.547 0 1 0-2.409-31.916z" class="prefix__cls-1" data-name="Caminho 4218" transform="translate(-289.882 .053)"/>
        </g>
    </g>
</svg>
