<svg xmlns="http://www.w3.org/2000/svg" width="33" height="33" viewBox="0 0 33 33">
    <g id="prefix__Grupo_337" data-name="Grupo 337" transform="translate(.014 .312)">
        <g id="prefix__Elipse_535" data-name="Elipse 535" transform="translate(-.014 -.312)" style="stroke:#6e00e6;fill:none">
            <circle cx="16.5" cy="16.5" r="16.5" style="stroke:none"/>
            <circle cx="16.5" cy="16.5" r="16" style="fill:none"/>
        </g>
        <path id="prefix__Caminho_4207" d="M42.214 12.794a7.694 7.694 0 0 0 7.763-7.763v-.37a6.009 6.009 0 0 0 1.331-1.4 6.137 6.137 0 0 1-1.553.444 2.876 2.876 0 0 0 1.183-1.479 6.781 6.781 0 0 1-1.7.665 2.64 2.64 0 0 0-2-.887 2.778 2.778 0 0 0-2.735 2.735 1.441 1.441 0 0 0 .074.591 7.643 7.643 0 0 1-5.619-2.883 2.831 2.831 0 0 0-.37 1.4 2.937 2.937 0 0 0 1.186 2.293 2.492 2.492 0 0 1-1.257-.37 2.7 2.7 0 0 0 2.218 2.661 2.279 2.279 0 0 1-.735.075 1.258 1.258 0 0 1-.518-.074 2.8 2.8 0 0 0 2.588 1.922 5.582 5.582 0 0 1-3.4 1.183 2.047 2.047 0 0 1-.67-.074 6.978 6.978 0 0 0 4.214 1.331" data-name="Caminho 4207" transform="translate(-28.51 9.821)" style="fill:#6e00e6;fill-rule:evenodd"/>
    </g>
</svg>
