<svg xmlns="http://www.w3.org/2000/svg" width="16.924" height="13.727" viewBox="0 0 16.924 13.727">
    <path id="prefix__Caminho_141" d="M43.359 15.727a9.785 9.785 0 0 0 9.872-9.872v-.47A7.643 7.643 0 0 0 54.924 3.6a7.805 7.805 0 0 1-1.974.564 3.658 3.658 0 0 0 1.5-1.88 8.624 8.624 0 0 1-2.163.846A3.358 3.358 0 0 0 49.753 2a3.533 3.533 0 0 0-3.479 3.479 1.833 1.833 0 0 0 .094.752 9.721 9.721 0 0 1-7.146-3.667 3.6 3.6 0 0 0-.47 1.786 3.736 3.736 0 0 0 1.5 2.915 3.17 3.17 0 0 1-1.6-.47 3.436 3.436 0 0 0 2.821 3.385 2.9 2.9 0 0 1-.94.094 1.6 1.6 0 0 1-.658-.094 3.562 3.562 0 0 0 3.291 2.445 7.1 7.1 0 0 1-4.325 1.5 2.6 2.6 0 0 1-.841-.09 8.875 8.875 0 0 0 5.359 1.692" data-name="Caminho 141" transform="translate(-38 -2)" style="fill:#fff;fill-rule:evenodd"/>
</svg>
