<svg xmlns="http://www.w3.org/2000/svg" width="33" height="33" viewBox="0 0 33 33">
    <defs>
        <style>
            .prefix__cls-2{fill:#6e00e6}
        </style>
    </defs>
    <g id="prefix__Grupo_338" data-name="Grupo 338" transform="translate(.358 .312)">
        <g id="prefix__Elipse_536" data-name="Elipse 536" transform="translate(-.358 -.312)" style="stroke:#6e00e6;fill:none">
            <circle cx="16.5" cy="16.5" r="16.5" style="stroke:none"/>
            <circle cx="16.5" cy="16.5" r="16" style="fill:none"/>
        </g>
        <g id="prefix__whatsapp_2_" data-name="whatsapp (2)" transform="translate(9.225 8.587)">
            <path id="prefix__Caminho_4205" d="M12.942 2.207a7.6 7.6 0 0 0-10.707 0A7.457 7.457 0 0 0 0 7.53a7.5 7.5 0 0 0 .925 3.558l-.9 4.11 4.157-.946a7.609 7.609 0 0 0 3.412.811 7.573 7.573 0 0 0 5.357-2.206 7.453 7.453 0 0 0-.008-10.653zM7.593 13.88a6.413 6.413 0 0 1-3.048-.773l-.2-.107-2.764.629.6-2.729-.116-.2a6.342 6.342 0 0 1-.88-3.168 6.4 6.4 0 0 1 10.92-4.484A6.307 6.307 0 0 1 14 7.536a6.385 6.385 0 0 1-6.407 6.344zm0 0" class="prefix__cls-2" data-name="Caminho 4205"/>
            <path id="prefix__Caminho_4206" d="M140.271 141.863h-.333a.639.639 0 0 0-.463.217 1.938 1.938 0 0 0-.608 1.444 3.362 3.362 0 0 0 .709 1.79 7.119 7.119 0 0 0 2.967 2.613c1.467.577 1.766.462 2.084.433a1.754 1.754 0 0 0 1.172-.823 1.443 1.443 0 0 0 .1-.823c-.043-.072-.159-.115-.333-.2s-1.025-.512-1.184-.57-.275-.087-.391.087-.457.573-.558.689-.2.13-.376.044a4.8 4.8 0 0 1-1.391-.863 5.322 5.322 0 0 1-.976-1.217c-.1-.173-.011-.267.076-.353s.183-.183.27-.284a1.17 1.17 0 0 0 .169-.289.318.318 0 0 0-.014-.3c-.043-.087-.377-.943-.531-1.285-.128-.295-.265-.305-.389-.31zm0 0" class="prefix__cls-2" data-name="Caminho 4206" transform="translate(-134.744 -137.651)"/>
        </g>
    </g>
</svg>
