<svg xmlns="http://www.w3.org/2000/svg" width="20.652" height="14.534" viewBox="0 0 20.652 14.534">
    <path id="prefix__XMLID_823_" d="M19.847 47.165c-.745-.886-2.122-1.248-4.75-1.248H5.555c-2.689 0-4.088.385-4.831 1.328C0 48.165 0 49.521 0 51.4v3.575c0 3.634.859 5.479 5.555 5.479H15.1c2.279 0 3.543-.319 4.36-1.1.838-.8 1.2-2.111 1.2-4.378V51.4c-.008-1.982-.06-3.345-.813-4.235zm-6.588 6.513l-4.333 2.264a.666.666 0 0 1-.975-.59v-4.515a.666.666 0 0 1 .973-.591l4.333 2.25a.666.666 0 0 1 0 1.182z" transform="translate(0 -45.917)" style="fill:#fff"/>
</svg>
